<svg xmlns="http://www.w3.org/2000/svg" preserveAspectRatio="xMinYMin meet" viewBox="0 0 255.419 257.971" height="2060.471" width="2040.359"><path d="M255.28 18.501c-1.842-1.51-16.319-9.274-16.319-9.274l-15.447 8.975-.009-.005 15.448-8.974L223.51.02l-.005 18.177-16.11-9.018s-13.18 7.704-19.578 11.397c-8.055 4.647-27.81 16.41-27.81 16.41v17.369l-16.274 42.4v23.023l-11.422 6.666-4.545 11.89L95.74 55.248l.005-18.221L31.914 0 .032 18.455 0 18.449v18.776l19.884 47.891 12.083 7.117.01 21.84 47.901 116.344 47.872 27.396v.158l47.81-27.666 79.893-193.462-.173-18.342" fill="#3185b8"/><path d="M127.786 257.833l-47.908-27.416-47.9-116.344-.011-21.84-12.083-7.117L0 37.226V18.448l15.733 9.173v18.484l16.262 9.437.002-18.592 31.772 18.383L65.3 73.532l46.19 119.892 32.098 18.698v36.668l-15.847-9.322.045 18.365" fill="#3185b8"/><path d="M95.739 55.249l32.027 83.084-.066 45.767-16.233 9.233L65.3 73.399l-1.53-18.065 31.975-18.306-.005 18.22M15.733 27.622v18.483l16.264-9.155-16.264-9.33" fill="#61a5ce"/><path d="M31.995 55.543l.002-18.592-16.264 9.155 16.262 9.437" fill="#eae9e6"/><path d="M127.7 184.1l16.01 9.161 17.827-44.757 13.728 8.169v-42.895l4.38-10.357 11.688 6.845V92.133l-15.911-9.245 16-9.288-15.733-9.067-.042-18.43-15.64-9.118v17.37l-16.274 42.4v23.023l-11.422 6.666-4.545 11.89-.066 45.766" fill="#3185b8"/><path d="M127.48 202.835l16.108 9.287-.08 36.676 32.051-18.493 79.894-193.462-.173-18.342-47.886 27.602v36.825l-16.06 9.205v18.133l-11.69-6.845-4.379 10.357v42.805l-22.244 13.08-9.31 23.598-16.23 9.575" fill="#61a5ce"/><path d="M63.667 73.733L79.733 64.4v18.465l-16.066-9.133" fill="#eae9e6"/><path d="M79.733 82.865l15.933 9.001V73.733L79.733 64.4v18.465" fill="#3185b8"/><path d="M47.845 119.531v18.6l16.087-9.257-16.087-9.343" fill="#61a5ce"/><path d="M79.988 138.217l-16.143 9.4-16-9.486 16.087-9.257 16.056 9.343" fill="#eae9e6"/><path d="M79.77 193.468v18.758l16.17-9.35-16.17-9.408" fill="#61a5ce"/><path d="M111.522 230.218l16.287 9.467.059-19.052-16.346 9.585" fill="#eae9e6"/><path d="M127.75 257.971l.06-18.286 15.698 9.113-15.758 9.173" fill="#61a5ce"/><path d="M127.7 184.1l-16.233 9.233 16.014 9.503 16.23-9.575-16.01-9.161" fill="#eae9e6"/><path d="M207.394 82.928V46.103l-15.854-9.025v18.347l-15.851 9.108 31.705 18.395" fill="#3185b8"/><path d="M175.422 82.888l16-9.288 15.972 9.328-16.06 9.205-15.912-9.245" fill="#eae9e6"/><path d="M175.689 64.533l15.851-9.108V37.078l-15.893 9.025.042 18.43" fill="#61a5ce"/><path d="M223.505 18.198L223.51.02l15.443 9.203-15.448 8.975" fill="#3185b8"/><path d="M255.28 18.501l-47.886 27.602-15.854-9.025-15.893 9.025-15.64-9.118s19.755-11.762 27.81-16.41c6.398-3.692 19.577-11.396 19.577-11.396l16.12 9.023 15.447-8.975s14.477 7.763 16.319 9.274c-4.356 2.545 0 0 0 0M95.744 37.028L63.769 55.334.03 18.455 31.915 0l63.829 37.028" fill="#eae9e6"/><path d="M239.204 45.683V27.767l-15.58 8.99 15.58 8.926m-47.224 83.29l15.503-8.893v17.837l-15.503-8.944" fill="#3185b8"/><path d="M159.583 202.713v18.484l16.148-9.341-16.148-9.143" fill="#eae9e6"/><path d="M175.831 211.855l-.199-18.334-16.05 9.192 16.25 9.143" fill="#3185b8"/></svg>